<svg width="97" height="206" viewBox="0 0 97 206" fill="none" xmlns="http://www.w3.org/2000/svg">
<g id="Frame" clip-path="url(#clip0)">
<g id="Group">
<path id="Vector" d="M48.5 96.5C75.0097 96.5 96.5 75.0097 96.5 48.5C96.5 21.9903 75.0097 0.5 48.5 0.5C21.9903 0.5 0.5 21.9903 0.5 48.5C0.5 75.0097 21.9903 96.5 48.5 96.5Z" fill="black"/>
<path id="Vector_2" d="M48.5 1C74.69 1 96 22.31 96 48.5C96 74.69 74.69 96 48.5 96C22.31 96 1 74.69 1 48.5C1 22.31 22.31 1 48.5 1ZM48.5 0C21.71 0 0 21.71 0 48.5C0 75.29 21.71 97 48.5 97C75.29 97 97 75.29 97 48.5C97 21.71 75.29 0 48.5 0Z" fill="black"/>
</g>
<g id="Group_2">
<path id="Vector_3" d="M48.5 87.3604C70.0281 87.3604 87.48 69.9085 87.48 48.3804C87.48 26.8523 70.0281 9.40039 48.5 9.40039C26.972 9.40039 9.52002 26.8523 9.52002 48.3804C9.52002 69.9085 26.972 87.3604 48.5 87.3604Z" fill="#998675"/>
<path id="Vector_4" d="M48.4999 9.81024C69.7699 9.81024 87.0799 27.1202 87.0799 48.3902C87.0799 69.6602 69.7699 86.9602 48.4999 86.9602C27.2299 86.9602 9.91986 69.6502 9.91986 48.3802C9.91986 27.1102 27.2299 9.81024 48.4999 9.81024ZM48.4999 8.99023C26.7499 8.99023 9.10986 26.6302 9.10986 48.3802C9.10986 70.1302 26.7499 87.7702 48.4999 87.7702C70.2499 87.7702 87.8899 70.1302 87.8899 48.3802C87.8899 26.6302 70.2499 8.99023 48.4999 8.99023Z" fill="black"/>
</g>
<path id="string" d="M42.7899 205.5C34.1099 191.3 25.6399 170.37 34.7399 147.5C38.5599 137.9 43.5899 132.69 47.6299 126.5C57.9799 110.62 63.7699 85.1999 39.5799 44.4999L48.2299 44.3799C72.4299 85.0799 66.6399 110.5 56.2799 126.38C52.2399 132.57 47.2099 137.78 43.3899 147.38C34.2999 170.25 42.7599 191.18 51.4399 205.38L42.7899 205.5Z" fill="#29ABE2"/>
</g>
<defs>
<clipPath id="clip0">
<rect width="97" height="205.5" fill="white"/>
</clipPath>
</defs>
</svg>
