<?xml version="1.0" encoding="utf-8"?>
<!-- Generator: Adobe Illustrator 25.0.1, SVG Export Plug-In . SVG Version: 6.00 Build 0)  -->
<svg version="1.1" id="Layer_1" xmlns="http://www.w3.org/2000/svg" xmlns:xlink="http://www.w3.org/1999/xlink" x="0px" y="0px"
	 viewBox="0 0 100 100" style="enable-background:new 0 0 100 100;" xml:space="preserve">
<style type="text/css">
	.st0{opacity:0.7;}
	.st1{fill:none;stroke:#787C79;stroke-width:3.7328;stroke-linecap:round;stroke-linejoin:round;}
</style>
<g>
	<g class="st0">
		<g>
			<path class="st1" d="M19.12,25.91c0.03,0.05,1.84-1.13,1.87-1.08c0.12,0.21-5.31,10.44-5.16,10.69
				c0.18,0.31,14.61-8.85,14.79-8.54c0.06,0.11,1.4,5.5,1.47,5.62c0.24,0.42,14.69-8.95,14.89-8.6c0.12,0.21-3.69,8.36-3.57,8.58
				c0.23,0.39,13.61-8.53,13.9-8.03c0.17,0.3-8.47,10.98-8.28,11.3c0.25,0.43,18.37-11.27,18.66-10.77
				c0.09,0.16-2.28,8.22-2.16,8.43c0.2,0.35,18.47-11.34,18.76-10.83c0.2,0.35-10.5,13.14-10.27,13.54
				c0.14,0.24,11.94-7.16,12.06-6.96"/>
		</g>
	</g>
	<g class="st0">
		<g>
			<path class="st1" d="M19.12,44.13c0.03,0.05,1.84-1.13,1.87-1.08c0.12,0.21-5.31,10.44-5.16,10.69
				c0.18,0.31,14.61-8.85,14.79-8.54c0.06,0.11,1.4,5.5,1.47,5.62c0.24,0.42,14.69-8.95,14.89-8.6c0.12,0.21-3.69,8.36-3.57,8.58
				c0.23,0.39,13.61-8.53,13.9-8.03c0.17,0.3-8.47,10.98-8.28,11.3c0.25,0.43,18.37-11.27,18.66-10.77
				c0.09,0.16-2.28,8.22-2.16,8.43c0.2,0.35,18.47-11.34,18.76-10.83c0.2,0.35-10.5,13.14-10.27,13.54
				c0.14,0.24,11.94-7.16,12.06-6.96"/>
		</g>
	</g>
	<g class="st0">
		<g>
			<path class="st1" d="M19.12,63.65c0.03,0.05,1.84-1.13,1.87-1.08c0.12,0.21-5.31,10.44-5.16,10.69
				c0.18,0.31,14.61-8.85,14.79-8.54c0.06,0.11,1.4,5.5,1.47,5.62c0.24,0.42,14.69-8.95,14.89-8.6c0.12,0.21-3.69,8.36-3.57,8.58
				c0.23,0.39,13.61-8.53,13.9-8.03c0.17,0.3-8.47,10.98-8.28,11.3c0.25,0.43,18.37-11.27,18.66-10.77
				c0.09,0.16-2.28,8.22-2.16,8.43c0.2,0.35,18.47-11.34,18.76-10.83c0.2,0.35-10.5,13.14-10.27,13.54
				c0.14,0.24,11.94-7.16,12.06-6.96"/>
		</g>
	</g>
</g>
</svg>
