<?xml version="1.0" standalone="no"?>
<!DOCTYPE svg PUBLIC "-//W3C//DTD SVG 20010904//EN"
 "http://www.w3.org/TR/2001/REC-SVG-20010904/DTD/svg10.dtd">
<svg version="1.0" xmlns="http://www.w3.org/2000/svg"
 width="700.000000pt" height="700.000000pt" viewBox="0 0 700.000000 700.000000"
 preserveAspectRatio="xMidYMid meet">
<metadata>
Created by potrace 1.11, written by Peter Selinger 2001-2013
</metadata>
<g transform="translate(0.000000,700.000000) scale(0.100000,-0.100000)"
fill="#000000" stroke="none">
<path d="M3787 5794 c-1 -1 -306 -5 -677 -8 -371 -4 -689 -8 -707 -11 -137
-17 -262 -88 -343 -192 -27 -36 -327 -540 -848 -1423 -63 -107 -152 -258 -197
-335 -108 -183 -120 -219 -119 -365 0 -133 10 -164 100 -318 30 -51 69 -118
86 -150 17 -31 37 -64 44 -73 8 -8 14 -18 14 -22 0 -3 14 -30 31 -59 31 -51
196 -337 237 -408 11 -19 52 -91 92 -160 40 -69 84 -145 98 -170 14 -25 33
-57 43 -72 11 -14 19 -29 19 -32 0 -3 50 -93 112 -198 261 -451 263 -454 375
-526 110 -70 156 -77 488 -76 430 2 1691 15 1835 19 243 6 378 86 501 293 123
207 213 359 229 387 21 37 196 334 209 355 8 13 119 200 329 555 36 61 70 119
76 130 6 11 58 98 115 194 124 209 142 256 147 376 5 154 -15 203 -213 532
-23 40 -43 75 -43 78 0 3 -8 18 -19 33 -10 15 -83 140 -162 277 -78 138 -213
372 -300 521 -86 150 -169 294 -184 320 -211 379 -284 459 -468 515 -55 17
-98 18 -480 16 -230 -1 -419 -3 -420 -3z m866 -278 c74 -37 109 -88 369 -546
11 -19 42 -72 69 -118 27 -45 49 -85 49 -88 0 -3 8 -17 19 -32 16 -24 611
-1055 639 -1108 17 -33 22 -122 8 -167 -11 -36 -82 -159 -444 -772 -36 -60
-92 -154 -124 -208 -33 -54 -69 -115 -80 -135 -25 -46 -265 -451 -323 -547
-23 -38 -61 -103 -84 -143 -52 -90 -88 -128 -148 -154 -52 -23 83 -19 -1273
-33 -1044 -11 -959 -13 -1025 20 -56 29 -87 61 -125 131 -12 21 -31 55 -42 74
-74 126 -420 726 -456 790 -14 25 -52 89 -84 143 -32 55 -58 100 -58 102 0 1
-36 63 -79 138 -43 74 -90 154 -103 178 -14 24 -36 62 -49 85 -128 219 -151
265 -156 317 -3 32 0 70 7 93 11 32 267 480 345 604 13 19 55 91 95 160 40 69
83 141 95 160 12 19 31 51 42 70 11 19 72 123 135 230 64 107 175 296 248 420
73 124 147 240 164 259 17 18 51 43 76 54 53 24 26 23 1015 32 385 4 701 8
702 8 1 1 122 2 270 2 240 0 272 -2 306 -19z"/>
<path d="M4596 5403 c-1 -1 -499 -5 -1106 -8 -842 -4 -1108 -9 -1116 -18 -6
-7 -152 -255 -323 -552 -172 -297 -317 -547 -321 -555 -5 -8 -107 -184 -226
-390 -119 -206 -222 -384 -229 -396 -12 -18 -8 -29 34 -100 26 -43 114 -191
196 -329 81 -137 196 -331 255 -430 59 -99 180 -304 270 -455 89 -151 173
-291 185 -311 l24 -36 288 2 c158 2 599 6 978 10 380 4 730 7 780 8 l90 2 123
220 c68 121 138 247 156 280 18 33 141 254 274 492 133 237 242 433 242 435 0
3 -183 3 -407 2 -225 -2 -920 -5 -1546 -8 -626 -2 -1141 -7 -1144 -10 -3 -3
-6 -50 -5 -103 0 -54 1 -136 1 -183 l1 -86 483 3 c1214 7 1976 9 1973 4 -17
-31 -370 -667 -372 -670 -4 -4 -450 -10 -1163 -13 l-544 -3 -16 27 c-9 15 -50
84 -91 153 -41 70 -83 141 -94 159 -57 97 -354 596 -443 746 l-104 175 20 35
c12 19 58 99 104 178 45 78 92 159 103 180 236 407 666 1147 669 1150 2 3 291
7 642 9 351 2 823 5 1048 6 l410 3 1 187 c0 103 -2 187 -5 188 -19 2 -93 4
-95 2z"/>
<path d="M2737 4792 c-20 -37 -50 -89 -66 -117 -33 -58 -65 -115 -111 -200
-18 -33 -39 -69 -45 -80 -7 -11 -26 -45 -42 -75 -17 -30 -143 -257 -282 -503
-138 -246 -251 -449 -251 -451 0 -4 256 -3 2267 9 1114 6 1153 6 1146 -12 -3
-10 -9 -22 -13 -28 -4 -5 -21 -35 -37 -65 -17 -30 -117 -212 -223 -405 -106
-192 -202 -368 -213 -390 -11 -22 -28 -51 -37 -65 -9 -14 -37 -63 -62 -110
-25 -47 -79 -146 -120 -220 -41 -74 -94 -171 -118 -215 -23 -44 -49 -87 -57
-96 -12 -14 -67 -16 -491 -19 -652 -3 -1502 -9 -1532 -9 -26 -1 -27 -8 -21
-174 l1 -28 808 6 c444 3 929 6 1079 6 l272 2 16 31 c9 17 28 51 42 76 13 25
40 72 58 105 18 33 44 80 58 105 13 25 61 110 104 190 44 80 91 165 105 190
43 76 139 252 168 305 15 28 37 67 48 87 12 21 38 68 58 105 35 63 150 272
214 388 15 28 41 75 57 105 26 48 64 117 159 288 14 24 22 47 20 51 -3 3 -152
6 -333 5 -364 -2 -2283 -14 -2770 -17 l-312 -3 31 56 c17 30 48 84 68 120 21
36 52 92 70 125 18 33 81 146 140 250 59 105 120 215 137 245 70 129 137 247
154 271 l18 26 893 1 c491 0 907 1 923 1 l30 1 0 98 0 97 -986 2 -985 3 -37
-68z"/>
</g>
</svg>
