<svg width="224" height="559" viewBox="0 0 224 559" fill="none" xmlns="http://www.w3.org/2000/svg">
<g id="bobblehead 1">
<g id="body">
<path id="Vector" d="M185.206 516.686C185.206 516.686 187.892 530.136 185.08 534.128C185.08 534.128 182.914 544.964 157.842 546.673C157.842 546.673 143.908 549.464 122.494 527.784L121.114 524.849L117.264 528.233C117.264 528.233 96.8963 554.404 79.5638 547.375C79.5638 547.375 60.7621 549.151 57.4307 528.622C57.5615 524.612 58.2969 520.657 59.6046 516.931C59.6046 516.931 68.1893 485.786 80.7584 480.051C120.951 502.89 121.033 495.624 121.033 495.624C153.101 491.606 161.841 475.466 161.841 475.466L172.17 490.21C172.17 490.21 184.62 502.035 185.206 516.686ZM162.079 487.926C162.522 487.656 162.894 487.256 163.155 486.766C163.416 486.276 163.557 485.716 163.563 485.143C163.546 484.556 163.369 483.99 163.059 483.522C162.748 483.054 162.317 482.707 161.827 482.529C160.914 482.316 159.966 482.437 159.118 482.876C156.214 484.056 153.531 485.85 151.209 488.163L150.638 489.009C150.561 489.372 150.555 489.751 150.622 490.117C150.688 490.484 150.825 490.829 151.022 491.128C151.219 491.427 151.472 491.673 151.762 491.847C152.052 492.022 152.372 492.122 152.7 492.139C153.895 492.139 154.926 491.115 156.017 490.354C157.099 489.577 158.292 489.022 159.541 488.713C160.418 488.588 161.273 488.314 162.079 487.901V487.926ZM92.3332 498.466L92.1032 497.197C90.8938 497.062 89.8179 496.089 88.7569 495.302C87.0249 493.998 85.087 493.09 83.0511 492.629C81.8713 492.367 80.4022 492.435 79.8012 493.898C80.6546 495.075 81.7299 496.018 82.9472 496.656L87.5475 499.532C88.3435 500.137 89.2641 500.495 90.2185 500.572C90.7328 500.55 91.2246 500.326 91.6102 499.937C91.9957 499.549 92.2512 499.02 92.3332 498.44V498.466Z" fill="#603813"/>
<path id="Vector_2" d="M185.214 338.297L186 340.742C186 340.742 183.722 342.958 185.792 344.929C185.689 345.567 185.532 346.193 185.325 346.798C184.91 348.05 184.16 349.336 182.98 348.803L182.238 350.748C181.155 352.169 163.259 342.086 163.259 342.086C164.691 345.808 158.139 367.615 158.139 367.615C156.347 369.37 154.459 370.992 152.485 372.471C120.662 396.156 89.2913 361.094 89.2913 361.094C89.2913 361.094 81.048 346.925 81.4338 341.241L81.1296 341.401L80.447 338.703C77.628 337.242 74.5202 336.659 71.4394 337.011L70.2151 335.565C66.3439 335.781 62.4645 335.414 58.6774 334.473L58.1729 334.372C58.1729 334.372 56.0879 333.374 58.2174 328.51V323.629C58.2174 323.629 57.7945 293.372 71.0907 280.328C71.0907 280.328 94.8338 267.386 110.111 271.438L126.435 270.871C151.142 264.535 174.418 281.326 174.418 281.326C174.418 281.326 186.675 316.583 185.889 329.263C185.889 329.263 186.534 336.098 185.147 338.035L185.214 338.297Z" fill="#998675"/>
<path id="Vector_3" d="M163.259 342.086C163.259 342.086 181.155 352.195 182.268 350.782C182.134 351.349 177.876 369.392 172.333 377.005L169.558 375.998C169.558 375.998 159.504 370.534 158.139 367.59C158.139 367.59 164.691 345.783 163.259 342.086Z" fill="#D39972"/>
<path id="Vector_4" d="M173.001 380.913C173.001 380.913 173.684 382.867 171.569 385.777L169.744 385.616C166.449 380.659 161.07 379.931 156.945 376.413C155.917 375.506 154.954 374.507 154.066 373.427L152.485 372.445C154.459 370.966 156.348 369.344 158.139 367.59C159.504 370.534 169.558 375.998 169.558 375.998L173.001 380.913Z" fill="#1B1464"/>
<path id="Vector_5" d="M171.569 385.776L170.827 387.722L159.519 410.062L158.814 412.007C158.814 412.007 158.755 419.815 157.33 421.752C157.33 421.752 155.045 449.057 159.779 466.669L162.517 473.52L161.775 475.466C161.775 475.466 153.005 491.606 120.966 495.624C120.966 495.624 120.885 502.89 80.6919 480.051L82.1016 478.114L83.5188 474.223L82.1684 469.333C82.1684 469.333 82.1685 468.352 85.7002 461.56C85.7002 461.56 85.1141 446.909 86.509 446.926L86.7613 412.769C85.9848 411.525 85.2975 410.213 84.706 408.844C84.706 408.844 72.968 396.045 73.0348 387.265C73.0348 387.265 70.9572 386.267 71.6769 382.367C72.1014 382.048 72.4519 381.617 72.6987 381.111C72.9454 380.604 73.0811 380.037 73.0941 379.458C73.0941 379.458 87.1471 361.051 89.2394 361.068C89.2394 361.068 120.61 396.164 152.433 372.445L154.014 373.426C154.902 374.507 155.865 375.506 156.893 376.412C161.018 379.931 166.397 380.642 169.692 385.616L171.569 385.776Z" fill="#1B1464"/>
<path id="Vector_6" d="M163.548 485.118C163.542 485.691 163.401 486.251 163.14 486.741C162.879 487.23 162.507 487.631 162.064 487.901C161.255 488.327 160.395 488.612 159.512 488.746C158.262 489.055 157.069 489.611 155.987 490.388C154.919 491.149 153.865 492.147 152.671 492.172C152.343 492.155 152.022 492.056 151.732 491.881C151.442 491.706 151.189 491.461 150.992 491.162C150.795 490.863 150.658 490.517 150.592 490.151C150.526 489.785 150.531 489.406 150.608 489.043L151.179 488.197C153.501 485.884 156.184 484.09 159.089 482.91C159.937 482.471 160.885 482.35 161.797 482.563C162.282 482.735 162.71 483.071 163.023 483.528C163.336 483.984 163.519 484.539 163.548 485.118V485.118Z" fill="#A67C52"/>
<path id="Vector_7" d="M92.1032 497.172L92.3333 498.44C92.2466 499.015 91.9891 499.538 91.604 499.922C91.2189 500.305 90.7297 500.526 90.2186 500.547C89.2641 500.47 88.3436 500.111 87.5475 499.506L82.9472 496.63C81.73 495.992 80.6546 495.05 79.8013 493.873C80.4023 492.409 81.8714 492.341 83.0511 492.604C85.0871 493.065 87.0249 493.972 88.7569 495.277C89.818 496.038 90.8938 497.036 92.1032 497.172Z" fill="#A67C52"/>
<path id="Vector_8" d="M81.4337 341.241C81.0405 346.891 89.2912 361.035 89.2912 361.035C87.1988 361.035 73.1458 379.424 73.1458 379.424H71.0609C71.0609 379.424 63.4779 369.595 58.7441 350.52C63.2479 351.011 78.7774 342.687 81.1295 341.427L81.4337 341.241Z" fill="#D39972"/>
<path id="Vector_9" d="M80.447 338.703L81.1296 341.401C78.822 342.695 63.2406 351.019 58.7442 350.545C58.7442 350.545 57.3419 351.992 58.1061 343.22C58.1061 343.22 56.036 340.268 56.7483 338.322C56.7483 338.322 56.0508 338.322 58.1729 334.439L58.6774 334.541C62.4645 335.481 66.3439 335.848 70.2152 335.632L71.4394 337.079C74.515 336.705 77.6226 337.265 80.447 338.703V338.703Z" fill="#998675"/>
<path id="Vector_10" d="M182.268 350.748L183.01 348.803C184.19 349.369 184.939 348.05 185.355 346.798C185.562 346.193 185.718 345.567 185.822 344.928C183.752 342.958 186.03 340.741 186.03 340.741L185.243 338.297L185.176 338.085C186.586 336.148 185.918 329.313 185.918 329.313C186.705 316.625 174.448 281.377 174.448 281.377C174.448 281.377 151.172 264.586 126.464 270.922L110.141 271.489C94.856 267.437 71.1202 280.379 71.1202 280.379C57.8241 293.422 58.247 323.68 58.247 323.68V328.561C56.1176 333.424 58.2025 334.423 58.2025 334.423C56.0805 338.305 56.7779 338.305 56.7779 338.305C56.0359 340.251 58.1357 343.203 58.1357 343.203C57.3937 351.975 58.7738 350.528 58.7738 350.528C63.5076 369.603 71.0906 379.432 71.0906 379.432H73.1755C73.1625 380.012 73.0268 380.579 72.7801 381.085C72.5333 381.592 72.1828 382.023 71.7583 382.342C71.0164 386.242 73.1162 387.24 73.1162 387.24C73.0494 396.02 84.7874 408.818 84.7874 408.818C85.3789 410.188 86.0662 411.5 86.8427 412.743L86.5904 446.9C85.1955 446.9 85.7817 461.534 85.7817 461.534C82.2573 468.301 82.2499 469.308 82.2499 469.308L83.6002 474.197L82.1831 478.088L80.7733 480.025C68.2043 485.76 59.6197 516.906 59.6197 516.906C58.3119 520.632 57.5765 524.586 57.4457 528.596C60.7771 549.126 79.5788 547.349 79.5788 547.349C96.9261 554.353 117.301 528.199 117.301 528.199L121.152 524.815L122.524 527.75C143.938 549.43 157.872 546.639 157.872 546.639C182.943 544.947 185.11 534.094 185.11 534.094C187.922 530.102 185.236 516.652 185.236 516.652C184.65 502.001 172.214 490.176 172.214 490.176L161.886 475.432L162.628 473.487L159.89 466.635C155.156 449.023 157.441 421.718 157.441 421.718C158.851 419.781 158.925 411.974 158.925 411.974L159.63 410.028L170.864 387.764L171.606 385.819C173.72 382.909 173.038 380.955 173.038 380.955L169.595 376.04L172.37 377.047C177.913 369.434 182.171 351.366 182.305 350.824" stroke="black" stroke-width="1.04" stroke-miterlimit="10"/>
<path id="Vector_11" d="M73.1458 379.458C73.1458 379.458 87.1988 361.051 89.2912 361.068C89.2912 361.068 81.0405 346.924 81.4337 341.274L81.1295 341.435C78.8219 342.695 63.2405 351.019 58.7441 350.545" stroke="black" stroke-width="1.04" stroke-miterlimit="10"/>
<path id="Vector_12" d="M169.558 375.998C169.558 375.998 159.504 370.534 158.139 367.59C158.139 367.59 164.691 345.783 163.259 342.061C163.259 342.061 181.155 352.169 182.268 350.757" stroke="black" stroke-width="1.04" stroke-miterlimit="10"/>
<path id="Vector_13" d="M161.856 475.466C161.856 475.466 153.086 491.606 121.048 495.624C121.048 495.624 120.966 502.89 80.7734 480.051" stroke="black" stroke-width="1.04" stroke-miterlimit="10"/>
<path id="Vector_14" d="M89.2915 361.068C89.2915 361.068 120.662 396.164 152.485 372.445C154.459 370.966 156.347 369.344 158.139 367.59" stroke="black" stroke-width="1.04" stroke-miterlimit="10"/>
<path id="Vector_15" d="M159.208 471.6C154.682 476.278 149.132 478.435 143.715 480.507L123.571 488.213" stroke="black" stroke-width="0.52" stroke-miterlimit="10"/>
<path id="Vector_16" d="M119.698 489.728C112.545 488.383 105.348 487.012 98.5218 483.807C93.9438 481.641 89.4474 478.596 84.6172 478.393" stroke="black" stroke-width="0.52" stroke-miterlimit="10"/>
<path id="Vector_17" d="M121.567 422.107C120.936 423.009 120.349 423.95 119.809 424.924C117.523 428.452 113.546 429.484 111.803 433.578" stroke="black" stroke-width="0.52" stroke-miterlimit="10"/>
<path id="Vector_18" d="M121.426 416.042C119.071 419.118 116.572 422.046 113.939 424.814" stroke="black" stroke-width="0.52" stroke-miterlimit="10"/>
<path id="Vector_19" d="M121.998 407.093C118.956 409.504 115.928 411.914 112.886 414.317" stroke="black" stroke-width="0.52" stroke-miterlimit="10"/>
<path id="Vector_20" d="M120.544 404.31C117.46 405.657 114.546 407.463 111.877 409.681" stroke="black" stroke-width="0.52" stroke-miterlimit="10"/>
<path id="Vector_21" d="M122.465 382.334C121.267 387.663 121.5 393.28 123.133 398.456" stroke="black" stroke-width="0.52" stroke-miterlimit="10"/>
<path id="Vector_22" d="M132.794 383.45C132.715 387.476 132.385 391.49 131.807 395.462" stroke="black" stroke-width="0.52" stroke-miterlimit="10"/>
<path id="Vector_23" d="M126.397 416.956C127.837 418.555 128.735 420.915 129.907 422.877C131.079 424.84 132.838 426.574 134.641 426.066" stroke="black" stroke-width="0.52" stroke-miterlimit="10"/>
<path id="Vector_24" d="M123.504 402.144C121.835 401.806 120.499 400.097 119.201 398.583C117.262 396.306 115.118 394.267 112.805 392.501" stroke="black" stroke-width="0.52" stroke-miterlimit="10"/>
<path id="Vector_25" d="M154.066 373.426C154.955 374.507 155.918 375.506 156.945 376.412C161.071 379.931 166.45 380.642 169.744 385.616" stroke="black" stroke-width="0.52" stroke-miterlimit="10"/>
<path id="Vector_26" d="M162.279 374.721L157.085 375.084" stroke="black" stroke-width="0.52" stroke-miterlimit="10"/>
<path id="Vector_27" d="M90.6124 366.253C88.8624 369.803 86.5767 372.973 83.8605 375.617C80.4251 378.925 76.4408 381.099 73.2651 384.922" stroke="black" stroke-width="0.52" stroke-miterlimit="10"/>
<path id="Vector_28" d="M143.538 490.624C146.058 495.917 149.612 500.478 153.925 503.955" stroke="#754C24" stroke-width="0.52" stroke-miterlimit="10"/>
<path id="Vector_29" d="M151.951 506.696C148.097 505.669 144.137 505.257 140.184 505.47" stroke="#754C24" stroke-width="0.52" stroke-miterlimit="10"/>
<path id="Vector_30" d="M150.623 489.017C150.546 489.381 150.541 489.759 150.607 490.126C150.674 490.492 150.81 490.837 151.007 491.136C151.204 491.435 151.457 491.681 151.747 491.856C152.037 492.03 152.358 492.13 152.686 492.147C153.88 492.147 154.912 491.123 156.002 490.362C157.084 489.585 158.277 489.03 159.527 488.721C160.41 488.587 161.271 488.302 162.079 487.875C162.523 487.605 162.894 487.205 163.155 486.715C163.416 486.226 163.557 485.665 163.563 485.092C163.546 484.505 163.37 483.939 163.059 483.471C162.748 483.003 162.318 482.656 161.827 482.478C160.915 482.265 159.967 482.386 159.119 482.825C156.214 484.006 153.531 485.799 151.209 488.112" stroke="#754C24" stroke-width="0.52" stroke-miterlimit="10"/>
<path id="Vector_31" d="M157.427 493.044C160.045 491.689 162.748 490.558 165.514 489.66C165.621 489.602 165.739 489.577 165.857 489.586C165.976 489.595 166.09 489.638 166.189 489.711C166.642 490.193 166.048 491.132 165.522 491.445L159.986 494.778C158.643 495.624 157.248 496.41 155.787 496.385C155.626 496.4 155.464 496.37 155.315 496.298C155.166 496.226 155.035 496.113 154.933 495.97C154.818 495.721 154.773 495.437 154.803 495.157C154.834 494.877 154.939 494.615 155.104 494.405C155.418 494.068 155.809 493.836 156.232 493.737" stroke="#754C24" stroke-width="0.52" stroke-miterlimit="10"/>
<path id="Vector_32" d="M102.387 494.253C99.1354 496.315 96.445 499.359 94.6113 503.05" stroke="#754C24" stroke-width="0.52" stroke-miterlimit="10"/>
<path id="Vector_33" d="M93.3428 506.882C95.9317 509.288 99.026 510.883 102.321 511.509" stroke="#754C24" stroke-width="0.52" stroke-miterlimit="10"/>
<path id="Vector_34" d="M98.2321 491.808C94.4959 489.836 90.6519 488.141 86.7241 486.733C86.4453 486.584 86.1424 486.503 85.8346 486.494C85.5268 486.485 85.2208 486.549 84.9359 486.682C84.7912 486.79 84.6674 486.93 84.5717 487.095C84.4761 487.259 84.4106 487.443 84.3794 487.637C84.3482 487.831 84.3518 488.03 84.3901 488.222C84.4283 488.414 84.5004 488.595 84.602 488.755C84.717 488.868 84.8507 488.954 84.9952 489.009L94.6038 493.407C95.6278 493.872 97.0523 494.109 97.4975 492.739" stroke="#754C24" stroke-width="0.52" stroke-miterlimit="10"/>
<path id="Vector_35" d="M92.1032 497.172C90.8938 497.036 89.818 496.063 88.7569 495.277C87.0249 493.972 85.0871 493.065 83.0511 492.604C81.8714 492.341 80.4023 492.409 79.8013 493.873C80.6546 495.05 81.73 495.992 82.9472 496.63L87.5475 499.506C88.3436 500.111 89.2641 500.47 90.2186 500.547C90.7297 500.526 91.2189 500.305 91.604 499.922C91.9891 499.538 92.2466 499.015 92.3333 498.44" stroke="#754C24" stroke-width="0.52" stroke-miterlimit="10"/>
<path id="Vector_36" d="M119.69 516.026C114.006 520.481 108.318 524.939 102.624 529.4C100.84 530.933 98.9025 532.22 96.8519 533.232C95.368 533.892 93.7802 534.221 92.2888 534.924C90.1816 535.972 88.3118 537.8 86.2121 538.891C79.6159 542.274 72.3446 537.884 66.3569 532.767C63.2258 530.077 59.9908 526.845 58.8481 521.914" stroke="#42210B" stroke-width="0.26" stroke-miterlimit="10"/>
<path id="Vector_37" d="M122.599 516.762C134.789 527.623 148.501 536.006 162.94 537.148C167.325 537.495 171.843 537.148 175.939 534.982C178.155 533.811 180.142 532.145 181.783 530.084C183.425 528.022 184.687 525.606 185.496 522.979" stroke="#42210B" stroke-width="0.26" stroke-miterlimit="10"/>
<path id="Vector_38" d="M184.398 326.666C181.667 331.538 177.045 334.178 172.674 333.374" stroke="black" stroke-width="0.26" stroke-miterlimit="10"/>
<path id="Vector_39" d="M185.384 332.714C183.27 334.677 181.022 336.495 178.536 337.172C177.274 337.569 175.941 337.557 174.685 337.137C173.429 336.717 172.301 335.906 171.428 334.795" stroke="black" stroke-width="0.26" stroke-miterlimit="10"/>
<path id="Vector_40" d="M185.28 338.237C185.255 338.252 185.232 338.272 185.214 338.297C183.056 340.173 180.491 341.342 177.794 341.68" stroke="black" stroke-width="0.26" stroke-miterlimit="10"/>
<path id="Vector_41" d="M185.577 346.798H185.325C182.676 346.73 180.11 345.738 177.972 343.956" stroke="black" stroke-width="0.26" stroke-miterlimit="10"/>
<path id="Vector_42" d="M165.388 331.2C167.095 332.604 168.772 334.084 170.396 335.649" stroke="black" stroke-width="0.26" stroke-miterlimit="10"/>
<path id="Vector_43" d="M59.5977 343.897C63.6276 343.77 67.5789 342.595 71.1502 340.462" stroke="black" stroke-width="0.26" stroke-miterlimit="10"/>
<path id="Vector_44" d="M58.6777 334.524C62.4648 335.465 66.3442 335.832 70.2154 335.616" stroke="black" stroke-width="0.26" stroke-miterlimit="10"/>
<path id="Vector_45" d="M80.4475 338.703C77.6286 337.242 74.5208 336.659 71.4399 337.011" stroke="black" stroke-width="0.26" stroke-miterlimit="10"/>
<path id="Vector_46" d="M89.9517 343.862C92.5873 348.191 95.4516 352.332 98.5289 356.263" stroke="black" stroke-width="0.26" stroke-miterlimit="10"/>
<path id="Vector_47" d="M88.1494 347.085C90.8269 351.192 93.1689 355.57 95.1463 360.163" stroke="black" stroke-width="0.26" stroke-miterlimit="10"/>
<path id="Vector_48" d="M122.902 405.41C124.03 420.855 120.677 436.191 120.068 451.578C119.906 455.655 119.948 459.739 120.194 463.81C120.432 467.701 120.862 471.575 121.025 475.466C121.344 483.18 120.684 490.887 120.283 498.576C119.816 507.407 119.705 516.339 121.24 525.01C121.374 525.779 121.686 525.678 121.819 525.01C121.981 524.003 121.961 522.97 121.76 521.973C120.469 514.647 120.706 507.128 121.099 499.709C121.507 492.037 122.116 484.356 121.901 476.659C121.686 468.961 120.61 461.28 120.869 453.515C121.129 445.75 122.086 438.196 122.85 430.558C123.726 421.828 124.334 413.04 123.681 404.259C123.681 403.963 123.6 402.525 123.14 402.779C122.68 403.033 122.887 405.071 122.91 405.427L122.902 405.41Z" fill="black"/>
</g>
<g id="face">
<path id="Vector_49" d="M60.9652 231.534C60.9652 231.534 75.0627 311.098 122.549 305.574C122.549 305.574 171.519 316.968 184.133 228.15L186.359 225.612L190.068 210.386L196.442 190.796L198.972 180.78L196.746 168.938L193.036 164.709H189.371L187.101 167.246L189.327 146.099V120.722L188.585 116.493L186.359 100.421L181.907 96.1917L184.875 87.7328C184.875 87.7328 188.585 69.9691 170.777 52.2055C170.777 52.2055 151.486 33.596 147.034 32.7501C147.034 32.7501 132.937 31.9042 134.421 29.3665C134.421 29.3665 135.162 31.8027 122.549 27.624L115.129 29.3665L106.968 31.9042L101.774 33.596H98.0638L95.8379 34.4419L92.87 36.1336L88.4182 36.9795L85.4503 38.6713L82.4824 41.209L79.5145 42.9007L73.5787 44.5925L72.0948 47.1302L69.1269 48.822L66.901 52.2055L64.675 54.7432L62.4491 55.5891L60.9652 58.372L59.4812 62.3562L56.5133 63.202L52.8035 70.815L49.8356 80.1198V87.6313L52.0615 90.2705L49.8356 92.1145L52.8035 94.5083L49.8356 97.4943V107.044L51.3195 113.118L52.8035 118.193L53.5454 124.114L52.8035 138.495V146.953L55.0294 157.104L57.2553 168.101C57.2553 168.101 49.8356 164.514 49.8356 168.845C49.8356 168.845 47.6097 178.251 49.0936 182.481C49.2483 188.089 50.5167 193.584 52.8035 198.552C52.8035 198.552 52.8035 211.241 56.5133 212.087C56.5133 212.087 57.2553 215.47 56.5133 218.008C56.5133 218.008 55.0294 224.775 57.9973 228.159L60.9652 231.534Z" fill="black" stroke="black" stroke-miterlimit="10"/>
<path id="Vector_50" d="M182.649 171.476L184.044 196.853L181.907 212.823L176.587 231.136C176.587 231.136 170.777 243.376 167.067 245.068L158.906 249.298L152.228 234.918L143.324 228.996L133.731 225.165L123.781 221.975L115.871 222.229L108.451 223.921L103.258 228.15L94.354 232.38L91.3861 240.839L88.5963 251.04L86.9343 259.448L72.8368 236.609L61.7072 220.538L58.7393 208.695V190.796L57.2554 168.092L59.0435 147.893L66.4632 130.823L69.1269 106.343C69.1269 106.343 74.3207 90.2707 80.2565 90.2707L99.5478 86.0413L117.355 82.6577L129.227 84.3495L135.163 82.6577L145.55 85.1954L155.196 87.8261L158.164 86.0413L165.583 91.9625L170.777 103.805L176.579 114.108L179.013 137.167L182.649 171.476Z" fill="#D39972" stroke="black" stroke-width="0.5" stroke-miterlimit="10"/>
<path id="Vector_51" d="M133.998 149.246C133.998 149.246 132.247 142.293 137.582 141.362C137.582 141.362 138.175 138.038 165.658 145.439L176.58 153.864C171.698 157.4 133.998 149.246 133.998 149.246Z" fill="black" stroke="black" stroke-width="0.5" stroke-miterlimit="10"/>
<path id="Vector_52" d="M110.715 147.173C110.715 147.173 99.7632 139.07 98.0047 141.345C98.0047 141.345 89.153 138.376 66.4561 153.357C66.4561 153.357 97.5447 159.405 110.715 147.173Z" fill="black" stroke="black" stroke-width="0.75" stroke-miterlimit="10"/>
<path id="Vector_53" d="M137.389 168.938C137.389 168.938 150.091 155.404 164.144 168.938C164.137 168.938 144.808 176.551 137.389 168.938Z" fill="white" stroke="black" stroke-width="0.5" stroke-miterlimit="10"/>
<path id="Vector_54" d="M105.105 169.361C105.105 169.361 88.7375 155.827 76.1685 169.361C76.1462 169.361 91.0079 176.974 105.105 169.361Z" fill="white" stroke="black" stroke-width="0.5" stroke-miterlimit="10"/>
<path id="Vector_55" d="M108.971 158.204C110.344 158.145 111.153 159.498 111.605 160.809C112.166 162.617 112.538 164.493 112.711 166.4C113.131 170.175 112.958 174.005 112.199 177.71C111.457 181.347 110.173 184.799 109.231 188.36C108.218 191.904 107.802 195.635 108.007 199.356C108.007 199.517 108.088 200.693 108.4 200.447C108.712 200.202 108.586 198.84 108.563 198.502C108.304 194.501 109.728 190.491 110.863 186.778C112.108 182.984 112.95 179.034 113.371 175.012C113.727 170.863 113.557 166.678 112.867 162.586C112.473 160.268 111.813 154.973 108.905 155.099C108.459 155.099 108.534 158.271 108.971 158.246V158.204Z" fill="black"/>
<path id="Vector_56" d="M104 201.886C102.405 203.67 100.817 205.557 100.364 208.145C100.116 209.276 100.116 210.459 100.363 211.591C100.61 212.722 101.097 213.767 101.781 214.633C103.42 216.358 105.257 217.821 107.242 218.981C109.266 220.388 111.556 221.223 113.92 221.417C114.18 221.417 114.202 219.328 113.876 219.319C109.995 219.133 106.612 216.638 103.533 214.159C102.167 213.06 100.253 211.393 100.78 209.236C101.307 207.079 102.805 205.43 104.171 203.907C104.393 203.662 104.312 202.926 104.282 202.613C104.282 202.511 104.193 201.699 104.022 201.886H104Z" fill="black"/>
<path id="Vector_57" d="M135.163 198.595L138.487 205.632C138.91 206.538 139.911 207.992 139.852 209.075C139.793 210.158 138.806 211.427 138.197 212.247C135.682 215.631 132.046 219.133 127.876 217.568C127.773 217.526 127.491 219.505 127.921 219.666C129.052 220.033 130.242 220.101 131.399 219.863C132.557 219.626 133.651 219.089 134.599 218.295C136.663 216.748 138.381 214.671 139.615 212.23C140.064 211.186 140.283 210.032 140.253 208.869C140.223 207.706 139.946 206.569 139.444 205.556C138.108 202.613 136.684 199.72 135.311 196.801C135.133 196.421 135.059 197.038 135.044 197.182C134.963 197.663 134.999 198.16 135.148 198.62L135.163 198.595Z" fill="black"/>
<path id="Vector_58" d="M133.36 154.905C131.703 156.271 130.336 158.045 129.361 160.095C128.387 162.145 127.829 164.418 127.728 166.747C127.424 172.119 128.953 177.245 130.57 182.21C130.711 182.633 130.83 181.923 130.837 181.821C130.903 181.342 130.868 180.852 130.733 180.391C129.331 176.077 127.639 171.307 128.196 166.62C128.456 164.675 129.061 162.811 129.974 161.141C130.888 159.471 132.09 158.032 133.508 156.91C133.849 156.639 133.508 154.761 133.36 154.888V154.905Z" fill="black"/>
<path id="Vector_59" d="M106.545 212.002C108.199 211.799 109.943 211.571 111.546 212.18C112.195 212.387 112.79 212.772 113.278 213.302C113.767 213.831 114.135 214.488 114.35 215.216C114.35 215.216 114.41 215.521 114.499 215.512C114.588 215.504 114.625 215.242 114.632 215.208C114.725 214.717 114.725 214.21 114.632 213.719C114.452 212.924 114.105 212.191 113.622 211.583C113.139 210.974 112.533 210.509 111.857 210.226C110.173 209.447 108.289 209.684 106.53 209.904C106.204 209.947 106.322 212.036 106.575 212.002H106.545Z" fill="black"/>
<path id="Vector_60" d="M136.803 209.558C135.281 208.778 133.581 208.574 131.951 208.975C130.32 209.377 128.846 210.364 127.743 211.791C127.535 212.079 127.61 212.747 127.632 213.085C127.632 213.178 127.743 214.016 127.891 213.813C128.989 212.406 130.453 211.438 132.069 211.05C133.685 210.662 135.367 210.874 136.869 211.656C137.018 211.74 137.047 210.683 137.047 210.598C137.047 210.353 137.047 209.693 136.817 209.558H136.803Z" fill="black"/>
<path id="Vector_61" d="M114.284 214.903C116.591 218.16 119.952 222.407 124.078 220.74C124.486 220.571 124.152 218.592 124.033 218.642C119.93 220.292 116.613 216.105 114.343 212.882C114.187 212.653 114.113 213.567 114.113 213.618C114.053 214.056 114.113 214.505 114.284 214.903V214.903Z" fill="black"/>
<path id="Vector_62" d="M114.477 258.086C114.477 258.086 111.783 260.624 97.3147 245.863C97.3147 245.863 93.1078 256.919 93.9091 259.668C93.9091 259.668 99.7781 279.073 114.313 285.121C114.313 285.121 119.114 282.659 120.642 283.531L122.171 283.328C124.566 282.905 127.012 283.547 129.004 285.121C129.004 285.121 147.442 281.018 150.759 259.448C150.759 259.448 149.624 249.72 147.049 244.222C147.049 244.222 134.718 262.502 130.681 257.807C130.681 257.807 123.677 260.235 122.193 259.626C119.567 259.567 116.964 259.048 114.477 258.086V258.086Z" fill="#D39972"/>
<path id="Vector_63" d="M142.308 249.594C140.645 251.773 138.742 253.697 136.647 255.32C134.703 256.826 132.239 258.56 129.821 257.537L129.91 261.766C131.319 260.81 133.018 261.123 134.539 260.548C136.039 259.884 137.405 258.88 138.554 257.596C141.388 254.694 144.066 251.573 146.812 248.553C147.257 248.063 147.086 246.582 147.042 245.965C147.042 245.728 146.893 244.163 146.515 244.51C142.615 248.085 138.409 251.202 133.961 253.815C131.803 255.169 129.543 256.302 127.209 257.198C124.751 258.038 122.152 258.186 119.633 257.63L119.73 261.859L131.356 260.869C131.935 260.819 131.891 256.725 131.267 256.64L130.525 256.581C130.043 256.581 129.924 260.709 130.614 260.81L131.356 260.878L131.267 256.648L119.633 257.638C119.062 257.68 119.084 261.69 119.73 261.868C122.303 262.438 124.96 262.27 127.461 261.377C129.841 260.446 132.145 259.28 134.347 257.892C138.76 255.265 142.935 252.148 146.812 248.587L146.515 244.544C143.844 247.487 141.217 250.465 138.479 253.358C137.335 254.679 135.96 255.71 134.443 256.386C132.959 256.961 131.23 256.648 129.821 257.604C129.227 258.01 129.227 261.512 129.91 261.834C132.314 262.849 134.732 261.14 136.676 259.668C138.876 258.002 140.872 256.011 142.612 253.747C143.035 253.197 142.887 251.835 142.835 251.159C142.835 250.981 142.62 249.306 142.308 249.712V249.594Z" fill="#D39972"/>
<path id="Vector_64" d="M122.549 255.904C120.049 255.684 117.548 255.472 115.055 255.236C112.562 254.999 110.336 254.525 108.303 252.901C104.927 250.211 101.893 245.288 97.2404 246.015C96.5504 246.134 96.862 250.287 97.3294 250.245C102.145 249.458 105.09 254.779 108.682 257.367C110.599 258.642 112.763 259.357 114.981 259.448C117.533 259.702 120.086 259.905 122.638 260.133C123.113 260.176 123.239 256.005 122.549 255.904Z" fill="#D39972"/>
<path id="Vector_65" d="M97.3223 244.222C97.3223 244.222 109.149 231.331 113.252 233.124C113.252 233.124 121.065 237.007 122.549 235.112C122.549 235.112 120.234 237.76 130.667 232.955C130.667 232.955 144.067 242.531 147.034 241.685C147.034 241.685 142.152 245.364 127.899 242.674C127.899 242.674 127.899 242.531 115.961 244.222C115.961 244.222 106.493 241.685 103.392 244.222H97.3223Z" fill="#DC8D88" stroke="black" stroke-width="0.5" stroke-miterlimit="10"/>
<path id="Vector_66" d="M147.034 244.222C147.034 244.222 135.074 260.387 130.667 257.807C130.667 257.807 120.509 261.8 114.484 258.086C114.484 258.086 111.42 261.038 97.3223 245.863C97.3223 245.863 105.128 247.606 107.161 244.222C107.161 244.222 114.388 245.914 115.872 245.914L126.089 244.222L136.84 245.863L147.034 244.222Z" fill="#DC8D88" stroke="black" stroke-width="0.5" stroke-miterlimit="10"/>
<path id="Vector_67" d="M89.5242 172.136C92.8025 172.136 95.4601 170.189 95.4601 167.788C95.4601 165.387 92.8025 163.44 89.5242 163.44C86.246 163.44 83.5884 165.387 83.5884 167.788C83.5884 170.189 86.246 172.136 89.5242 172.136Z" fill="#8C6239" stroke="black" stroke-width="0.57" stroke-miterlimit="10"/>
<path id="Vector_68" d="M149.624 172.136C152.902 172.136 155.56 170.189 155.56 167.788C155.56 165.387 152.902 163.44 149.624 163.44C146.346 163.44 143.688 165.387 143.688 167.788C143.688 170.189 146.346 172.136 149.624 172.136Z" fill="#A67C52" stroke="black" stroke-width="0.57" stroke-miterlimit="10"/>
<path id="Vector_69" d="M89.5239 169.775C90.5483 169.775 91.3788 168.829 91.3788 167.661C91.3788 166.493 90.5483 165.546 89.5239 165.546C88.4994 165.546 87.6689 166.493 87.6689 167.661C87.6689 168.829 88.4994 169.775 89.5239 169.775Z" fill="black" stroke="black" stroke-width="0.42" stroke-miterlimit="10"/>
<path id="Vector_70" d="M149.624 169.775C150.648 169.775 151.479 168.829 151.479 167.661C151.479 166.493 150.648 165.546 149.624 165.546C148.6 165.546 147.769 166.493 147.769 167.661C147.769 168.829 148.6 169.775 149.624 169.775Z" fill="black" stroke="black" stroke-width="0.42" stroke-miterlimit="10"/>
<path id="Vector_71" d="M56.5875 169.843V175.612C56.5851 176.111 56.6349 176.607 56.7359 177.092C56.7359 177.177 56.8546 177.701 57.0327 177.701C57.2107 177.701 57.2849 177.185 57.3072 177.075C57.3713 176.586 57.3986 176.09 57.3888 175.595V169.818C57.3912 169.319 57.3414 168.822 57.2404 168.338C57.2404 168.261 57.1217 167.728 56.9436 167.737C56.7656 167.745 56.6914 168.253 56.6691 168.354C56.6048 168.847 56.5774 169.345 56.5875 169.843V169.843Z" fill="black"/>
<path id="Vector_72" d="M53.2195 170.283C53.4507 172.218 53.5894 174.167 53.635 176.12C53.635 176.348 53.635 176.568 53.635 176.796C53.635 177.515 53.635 176.407 53.635 177.135C53.6349 177.492 53.6101 177.848 53.5608 178.2C53.4499 179.035 53.1979 179.836 52.8188 180.561C52.5299 181.382 52.4526 182.28 52.5962 183.149C52.597 183.577 52.6675 184.002 52.804 184.401C52.8559 184.502 52.9969 184.849 53.123 184.604C54.3398 182.261 54.4511 179.427 54.4363 176.771C54.3996 173.887 54.2063 171.008 53.8575 168.151C53.8205 167.864 53.5905 166.637 53.2863 167.415C53.0554 168.35 53.0273 169.334 53.2046 170.283H53.2195Z" fill="black"/>
<path id="Vector_73" d="M51.3789 170.993L52.2099 180.721C52.2099 180.992 52.2693 182.1 52.5809 182.21C52.8925 182.32 52.9444 181.364 52.9593 181.195C53.2684 177.653 53.3106 174.087 53.0854 170.537C53.0854 170.257 53.0186 169.149 52.7144 169.039C52.4102 168.929 52.3509 169.885 52.336 170.054C52.0294 173.341 51.9377 176.649 52.0615 179.951C52.0615 180.29 52.0615 181.998 52.5067 182.041C52.9518 182.083 52.8702 180.07 52.8628 179.935C52.7803 177.96 52.8249 175.981 52.9964 174.013L52.2544 172.973V182.345C52.2544 182.675 52.2544 184.392 52.707 184.435C53.1596 184.477 53.0631 182.464 53.0631 182.328V172.99C53.0648 172.563 53.025 172.138 52.9444 171.721C52.9444 171.56 52.8628 171.061 52.7219 170.976C52.3583 170.748 52.3063 171.721 52.2915 171.949C52.0579 174.608 51.9909 177.282 52.0912 179.951H52.8925C52.7906 177.355 52.8625 174.753 53.1076 172.169L52.3657 171.687C52.3657 171.839 52.3657 172 52.3657 172.152C52.4102 172.897 52.3657 171.975 52.3657 172.406C52.3657 172.837 52.3657 173.1 52.4028 173.446C52.4399 173.793 52.4028 174.149 52.4028 174.495V175.214C52.4028 176.602 52.3138 177.752 52.195 179.114L52.937 179.596L52.0986 169.877C52.0986 169.615 52.0096 168.185 51.5718 168.422C51.3937 168.54 51.3715 169.268 51.3566 169.395C51.3121 169.932 51.3121 170.473 51.3566 171.01L51.3789 170.993Z" fill="black"/>
<path id="Vector_74" d="M106.048 173.371C100.601 176.994 94.3098 178.621 88.0252 178.031C87.6765 178.031 87.5726 181.127 88.0994 181.178C94.3816 181.768 100.671 180.14 106.115 176.517C106.463 176.28 106.397 175.325 106.382 174.935C106.382 174.825 106.241 173.244 106.048 173.371V173.371Z" fill="#8C6239"/>
<path id="Vector_75" d="M138.131 175.35C141.34 177.136 144.699 178.553 148.155 179.579C148.422 179.664 148.422 178.15 148.422 177.997C148.422 177.701 148.422 176.542 148.081 176.433C144.627 175.407 141.271 173.99 138.064 172.203C137.842 172.076 137.79 173.666 137.797 173.785C137.797 174.157 137.797 175.138 138.131 175.35Z" fill="#8C6239"/>
<path id="Vector_76" d="M57.2557 168.092C57.2557 168.092 60.5946 205.734 58.7396 208.695L61.7075 220.537C61.7075 220.537 60.5946 230.265 60.9655 231.534C60.9655 231.534 59.8526 231.111 57.9977 228.15C57.9977 228.15 55.4008 226.036 56.5137 218C56.7135 216.033 56.7135 214.046 56.5137 212.079C56.5137 212.079 53.1748 211.656 52.8039 198.544C50.6524 193.517 49.3917 188.056 49.094 182.473C49.094 182.473 47.2391 180.155 49.836 168.837C49.836 168.837 49.4576 164.286 57.2557 168.092Z" fill="#D39972" stroke="black" stroke-width="0.5" stroke-miterlimit="10"/>
<path id="Vector_77" d="M187.093 167.238L189.364 164.7H193.029L196.739 168.93L198.965 180.772L196.435 190.787L190.061 210.378L186.351 225.604L184.125 228.142L187.093 167.238Z" fill="#D39972" stroke="black" stroke-width="0.5" stroke-miterlimit="10"/>
<g id="Vector_78">
<path d="M114.477 258.086C114.477 258.086 115.456 264.101 119.181 267.907C119.952 268.277 120.781 268.467 121.618 268.467C122.455 268.467 123.284 268.277 124.056 267.907C124.056 267.907 131.728 259.964 130.659 257.807" fill="black"/>
<path d="M114.477 258.086C114.477 258.086 115.456 264.101 119.181 267.907C119.952 268.277 120.781 268.467 121.618 268.467C122.455 268.467 123.284 268.277 124.056 267.907C124.056 267.907 131.728 259.964 130.659 257.807" stroke="black" stroke-miterlimit="10"/>
</g>
</g>
</g>
</svg>
