<svg id="Layer_1" data-name="Layer 1" xmlns="http://www.w3.org/2000/svg" viewBox="0 0 203.7 330.16"><defs><style>.cls-1,.cls-10,.cls-11,.cls-2,.cls-3,.cls-4,.cls-5,.cls-6,.cls-8,.cls-9{stroke:#000;stroke-miterlimit:10;}.cls-2{fill:none;}.cls-3,.cls-7{fill:#d39972;}.cls-3,.cls-4,.cls-6,.cls-8{stroke-width:0.5px;}.cls-5{stroke-width:0.75px;}.cls-6{fill:#fff;}.cls-8{fill:#dc8d88;}.cls-12,.cls-9{fill:#8c6239;}.cls-10,.cls-9{stroke-width:0.57px;}.cls-10{fill:#a67c52;}.cls-11{stroke-width:0.42px;}</style></defs><path class="cls-1" d="M17.19,241.57s19,94.06,83,87.53c0,0,66,13.47,83-91.53l3-3,5-18,8.59-23.16,3.41-11.84-3-14-5-5h-4.94l-3.06,3,3-25v-30l-1-5-3-19-6-5,4-10s5-21-19-42c0,0-26-22-32-23,0,0-19-1-17-4,0,0,1,2.89-16-2.06l-10,2.06-11,3-7,2h-5l-3,1-4,2-6,1-4,2-4,3-4,2-8,2-2,3-4,2-3,4-3,3-3,1-2,3.3-2,4.7-4,1-5,9-4,11v8.89l3,3.11-3,2.18,4,2.82-4,3.53V94.4l2,7.17,2,6,1,7-1,17v10l3,12,3,13s-10-4.23-10,.89c0,0-3,11.11-1,16.11a43.86,43.86,0,0,0,5,19s0,15,5,16c0,0,1,4,0,7,0,0-2,8,2,12Z"/><path class="cls-2" d="M113.07,147.93"/><path class="cls-3" d="M181.19,170.57l1.88,30-2.88,18.89L173,241.1s-7.83,14.47-12.83,16.47l-11,5-9-17-12-7L115.25,234l-13.41-3.76-10.65.29-10,2-7,5-12,5-4,10-3.77,12.06-2.23,9.94-19-27-15-19-4-14V193.41l-2-26.84L14.6,142.7l10-20.19,3.59-28.94s7-19,15-19l26-5,24-4,16,2,8-2,14,3,12.94,3.12,4.06-2.12,10,7,7,14L173,102.75,176.3,130Z"/><path class="cls-4" d="M115.62,144.3s-2.36-8.22,4.84-9.32c0,0,.79-3.93,37.84,4.82L173,149.74C166.43,153.94,115.62,144.3,115.62,144.3Z"/><path class="cls-5" d="M84.25,141.84S69.48,132.26,67.12,135c0,0-11.94-3.5-42.52,14.21C24.6,149.16,66.49,156.31,84.25,141.84Z"/><path class="cls-6" d="M120.19,167.57s17.12-16,36.06,0C156.25,167.57,130.19,176.57,120.19,167.57Z"/><path class="cls-6" d="M76.69,168.07s-22.06-16-39,0C37.66,168.07,57.69,177.07,76.69,168.07Z"/><path d="M81.9,154.89c1.85-.07,2.93,1.53,3.54,3.08a28.2,28.2,0,0,1,1.5,6.6,37.64,37.64,0,0,1-.7,13.38c-1,4.3-2.73,8.37-4,12.59a35.11,35.11,0,0,0-1.65,13c0,.19.12,1.58.53,1.28s.26-1.89.23-2.29c-.36-4.73,1.57-9.47,3.09-13.86a60.15,60.15,0,0,0,3.39-13.91A51.34,51.34,0,0,0,87.15,160c-.53-2.74-1.42-9-5.34-8.85-.61,0-.5,3.74.09,3.72Z"/><path d="M75.21,206.53c-2.16,2.11-4.3,4.34-4.91,7.39a8.45,8.45,0,0,0,1.92,7.68,33.13,33.13,0,0,0,7.36,5.13,19.77,19.77,0,0,0,9,2.88c.34,0,.38-2.46-.07-2.48-5.23-.21-9.79-3.16-13.94-6.09-1.84-1.3-4.42-3.27-3.7-5.83s2.73-4.49,4.57-6.29c.29-.29.18-1.16.15-1.53,0-.12-.12-1.08-.35-.86Z"/><path d="M117.17,202.63l4.48,8.33c.58,1.07,1.92,2.79,1.84,4.07s-1.4,2.77-2.23,3.75c-3.38,4-8.28,8.14-13.91,6.29-.13,0-.51,2.29.06,2.48a10.42,10.42,0,0,0,9-1.62,21.52,21.52,0,0,0,6.78-7.2,8.47,8.47,0,0,0-.24-7.89c-1.79-3.48-3.71-6.91-5.57-10.35-.24-.45-.33.27-.36.45a3.33,3.33,0,0,0,.14,1.69Z"/><path d="M114.76,151a18.33,18.33,0,0,0-7.58,14c-.41,6.35,1.64,12.42,3.83,18.28.19.5.34-.33.36-.45a3.63,3.63,0,0,0-.14-1.7c-1.9-5.09-4.17-10.74-3.42-16.28A17,17,0,0,1,115,153.38c.46-.33,0-2.54-.2-2.39Z"/><path d="M78.63,218.49c2.22-.24,4.57-.51,6.73.21a5.52,5.52,0,0,1,3.78,3.58c0,.05.08.36.2.36s.17-.32.18-.37a4,4,0,0,0,0-1.75,6,6,0,0,0-3.74-4.14c-2.26-.92-4.81-.63-7.17-.37-.45.05-.28,2.52.06,2.48Z"/><path d="M119.41,215.6a10.51,10.51,0,0,0-12.23,2.64c-.29.33-.19,1.13-.15,1.53,0,.11.14,1.1.35.86a10.36,10.36,0,0,1,12.09-2.55c.2.09.24-1.15.24-1.25,0-.29,0-1.07-.3-1.23Z"/><path d="M89.05,221.92c3.11,3.85,7.64,8.87,13.21,6.89.54-.19.1-2.53-.07-2.48-5.52,2-10-3-13-6.81-.22-.26-.31.82-.31.88a2.55,2.55,0,0,0,.22,1.52Z"/><path class="cls-7" d="M89.31,273s-3.62,3-23.12-14.45c0,0-5.68,13.08-4.59,16.32,0,0,7.9,22.95,27.49,30.1,0,0,6.48-2.92,8.54-1.89l2.06-.23a12.72,12.72,0,0,1,9.2,2.12s24.86-4.86,29.33-30.36c0,0-1.53-11.5-5-18,0,0-16.62,21.62-22.06,16.06,0,0-9.44,2.88-11.44,2.16A34.82,34.82,0,0,1,89.31,273Z"/><path class="cls-7" d="M126.83,262.93a40.34,40.34,0,0,1-7.64,6.77c-2.62,1.78-5.94,3.82-9.19,2.62l.12,5c1.89-1.13,4.19-.76,6.23-1.45a15.89,15.89,0,0,0,5.42-3.48c3.82-3.43,7.43-7.13,11.13-10.69.59-.58.36-2.33.3-3.06,0-.28-.2-2.13-.71-1.72a100.17,100.17,0,0,1-16.91,11,55.7,55.7,0,0,1-9.1,4,21.27,21.27,0,0,1-10.21.5l.12,5,15.68-1.16c.78-.06.71-4.9-.12-5l-1-.08c-.65,0-.81,4.89.12,5l1,.08-.12-5-15.68,1.16c-.77.06-.74,4.8.12,5a21.32,21.32,0,0,0,10.43-.57,59.07,59.07,0,0,0,9.28-4.12,102.49,102.49,0,0,0,16.8-11l-.41-4.78c-3.6,3.47-7.14,7-10.82,10.42a15.9,15.9,0,0,1-5.44,3.58c-2,.68-4.34.31-6.23,1.44-.8.48-.8,4.62.12,5,3.24,1.2,6.49-.82,9.12-2.56a40.18,40.18,0,0,0,8-7c.58-.66.37-2.26.3-3.06,0-.21-.29-2.19-.7-1.71Z"/><path class="cls-7" d="M100.23,270.39c-3.36-.26-6.73-.51-10.09-.79s-6.36-.85-9.1-2.76c-4.55-3.18-8.64-9-14.91-8.14-.93.14-.51,5.05.12,5,6.49-.94,10.45,5.36,15.29,8.42A18.45,18.45,0,0,0,90,274.54c3.44.3,6.88.54,10.33.81.64,0,.81-4.89-.13-5Z"/><path class="cls-8" d="M66.19,256.57s15.94-15.23,21.47-13.11c0,0,10.53,4.58,12.53,2.35,0,0-3.12,3.12,10.94-2.56,0,0,18.06,11.32,22.06,10.32,0,0-6.59,4.36-25.79,1.18,0,0,0-.18-16.09,1.82,0,0-12.77-3-17,0Z"/><path class="cls-8" d="M133.19,256.57s-16.12,19.12-22.06,16.06c0,0-13.69,4.72-21.82.33,0,0-4.12,3.5-23.12-14.45,0,0,10.52,2.06,13.26-1.94,0,0,9.74,2,11.74,2l13.76-2,14.49,1.94Z"/><ellipse class="cls-9" cx="55.69" cy="166.22" rx="8" ry="5.14"/><ellipse class="cls-10" cx="136.69" cy="166.22" rx="8" ry="5.14"/><circle class="cls-11" cx="55.69" cy="166.07" r="2.5"/><circle class="cls-11" cx="136.69" cy="166.07" r="2.5"/><path d="M11.29,168.65v6.82a7.4,7.4,0,0,0,.2,1.75c0,.1.17.72.41.72s.34-.62.36-.74a9.41,9.41,0,0,0,.12-1.76v-6.82a6.93,6.93,0,0,0-.21-1.75c0-.1-.16-.72-.4-.72s-.34.61-.36.74a9.41,9.41,0,0,0-.12,1.76Z"/><path d="M6.76,169.17a66,66,0,0,1,.55,6.9c0,.27,0,.53,0,.79,0,.86,0-.45,0,.41a8,8,0,0,1-.09,1.26,7.7,7.7,0,0,1-1,2.79,5.49,5.49,0,0,0-.31,3.06,4.15,4.15,0,0,0,.29,1.48c.06.11.25.52.42.24,1.64-2.77,1.8-6.12,1.77-9.26a82.61,82.61,0,0,0-.78-10.19c0-.35-.35-1.8-.76-.88a7.1,7.1,0,0,0-.11,3.4Z"/><path d="M4.28,170,5.4,181.5c0,.33.08,1.64.49,1.77s.49-1,.51-1.2a72.74,72.74,0,0,0,.17-12.61c0-.32-.08-1.63-.49-1.76s-.49,1-.51,1.2a80.2,80.2,0,0,0-.38,11.7c0,.4,0,2.42.6,2.47s.49-2.33.48-2.5a47.7,47.7,0,0,1,.19-6.95l-1-1.23v11.08c0,.39,0,2.41.6,2.47s.48-2.33.48-2.5V172.37a7.48,7.48,0,0,0-.15-1.5c0-.19-.11-.78-.3-.89-.49-.26-.56.89-.59,1.16a69.49,69.49,0,0,0-.27,9.46l1.08,0a60.32,60.32,0,0,1,.29-9.19l-1-.57c0,.18,0,.36,0,.55.06.88,0-.21,0,.3s0,.82,0,1.23,0,.83,0,1.24v.35c0-.14,0,.49,0,.5,0,1.64-.11,3-.27,4.61l1,.57L5.29,168.67c0-.31-.12-2-.71-1.72-.24.14-.28,1-.3,1.15a9.38,9.38,0,0,0,0,1.91Z"/><path class="cls-12" d="M78,172.81a41.38,41.38,0,0,1-24.29,5.51c-.48,0-.61,3.66.09,3.72a41.38,41.38,0,0,0,24.29-5.51c.47-.27.37-1.41.36-1.87,0-.12-.2-2-.45-1.85Z"/><path class="cls-12" d="M121.19,175.15a72.34,72.34,0,0,0,13.51,5c.37.09.37-1.69.36-1.87,0-.35,0-1.72-.45-1.85a72.34,72.34,0,0,1-13.51-5c-.29-.14-.36,1.73-.36,1.87,0,.45,0,1.61.45,1.85Z"/><path class="cls-3" d="M12.19,166.57s4.5,44.5,2,48l4,14s-1.5,11.5-1,13c0,0-1.5-.5-4-4,0,0-3.5-2.5-2-12a30.43,30.43,0,0,0,0-7s-4.5-.5-5-16a50.29,50.29,0,0,1-5-19s-2.5-2.73,1-16.11C2.19,167.46,1.69,162.07,12.19,166.57Z"/><polygon class="cls-3" points="187.19 165.57 190.25 162.57 195.19 162.57 200.19 167.57 203.19 181.57 199.78 193.41 191.19 216.57 186.19 234.57 183.19 237.57 187.19 165.57"/><path class="cls-8" d="M64.28,229.18"/><path class="cls-8" d="M104.27,231.12"/><path class="cls-1" d="M89.31,273s1.32,7.11,6.35,11.61a8.45,8.45,0,0,0,6.56,0s10.35-9.38,8.91-11.94"/></svg>