<svg width="512" height="512" viewBox="0 0 512 512" fill="none" xmlns="http://www.w3.org/2000/svg">
<g id="marker">
<g id="maps-and-flags 1">
<g id="Vector">
<path d="M256.427 0C154.182 0 71 83.182 71 185.426C71 312.314 236.939 498.593 244.004 506.461C250.64 513.852 262.226 513.839 268.85 506.461C275.915 498.593 441.854 312.314 441.854 185.426C441.852 83.182 358.671 0 256.427 0Z" fill="#DADED4"/>
<path d="M256.427 0C154.182 0 71 83.182 71 185.426C71 312.314 236.939 498.593 244.004 506.461C250.64 513.852 262.226 513.839 268.85 506.461C275.915 498.593 441.854 312.314 441.854 185.426C441.852 83.182 358.671 0 256.427 0Z" stroke="black"/>
</g>
<g id="Group 2">
<path id="Vector_2" d="M410.603 205.423L342.76 323.287C340.622 327.001 337.587 330.086 333.948 332.244C330.309 334.401 326.19 335.559 321.988 335.604L188.661 336.999C184.333 337.044 180.07 335.907 176.31 333.704C172.551 331.502 169.428 328.312 167.264 324.463L102.272 208.872C100.108 205.023 98.9787 200.652 99.0003 196.208C99.0219 191.763 100.193 187.404 102.395 183.577L170.237 65.719C172.375 62.0014 175.412 58.9136 179.053 56.7547C182.694 54.5957 186.816 53.4388 191.02 53.396L324.353 52.0012C328.68 51.957 332.942 53.0944 336.701 55.297C340.459 57.4996 343.581 60.6883 345.745 64.5367L410.726 180.128C412.891 183.977 414.021 188.347 414 192.792C413.978 197.237 412.806 201.596 410.603 205.423V205.423Z" stroke="#231F20" stroke-width="8" stroke-miterlimit="10"/>
<path id="Vector_3" d="M339.715 80L192.145 80.8798L125 199.695L182.491 299L310.649 297.749L350 225.531L164.147 226.417" stroke="#231F20" stroke-width="20" stroke-miterlimit="10"/>
<path id="Vector_4" d="M188.051 319L326.512 318.169L393 195.425L167 196.836L214.825 110H340.673" stroke="#231F20" stroke-width="11" stroke-miterlimit="10"/>
</g>
</g>
</g>
</svg>
